<?xml version="1.0" encoding="UTF-8"?>
<!DOCTYPE svg PUBLIC "-//W3C//DTD SVG 1.1//EN" "http://www.w3.org/Graphics/SVG/1.1/DTD/svg11.dtd">
<svg xmlns="http://www.w3.org/2000/svg" version="1.1" width="265px" height="78px" style="shape-rendering:geometricPrecision; text-rendering:geometricPrecision; image-rendering:optimizeQuality; fill-rule:evenodd; clip-rule:evenodd" xmlns:xlink="http://www.w3.org/1999/xlink">
<g><path style="opacity:0.978" fill="#93d3f9" d="M 22.5,-0.5 C 23.1667,-0.5 23.8333,-0.5 24.5,-0.5C 30.7413,15.1529 37.408,30.6529 44.5,46C 43.7977,47.8563 42.4643,49.023 40.5,49.5C 40.5,48.8333 40.1667,48.5 39.5,48.5C 39.1667,47.5 38.5,46.8333 37.5,46.5C 36.3611,43.082 35.0277,39.7487 33.5,36.5C 32.0337,32.7787 30.367,29.112 28.5,25.5C 27.5,25.1667 26.5,24.8333 25.5,24.5C 23.1692,25.6056 20.8358,25.7722 18.5,25C 16.6922,28.7812 15.0255,32.6146 13.5,36.5C 11.6477,39.5507 10.3143,42.884 9.5,46.5C 8.5,46.8333 7.83333,47.5 7.5,48.5C 3.41146,49.6867 1.91146,48.02 3,43.5C 9.78671,28.9295 16.2867,14.2629 22.5,-0.5 Z"/></g>
<g><path style="opacity:0.87" fill="#f1f0ff" d="M 218.5,23.5 C 220.833,23.5 223.167,23.5 225.5,23.5C 225.336,26.1873 225.503,28.854 226,31.5C 237.981,29.4923 242.314,34.4923 239,46.5C 235.508,51.5965 231.175,52.5965 226,49.5C 223.619,50.435 221.119,50.7683 218.5,50.5C 218.5,41.5 218.5,32.5 218.5,23.5 Z M 226.5,36.5 C 230.145,35.6797 232.478,37.013 233.5,40.5C 231.99,44.8591 229.49,45.8591 226,43.5C 225.444,41.1152 225.61,38.7819 226.5,36.5 Z"/></g>
<g><path style="opacity:0.849" fill="#f1f0ff" d="M 68.5,24.5 C 72.059,24.4081 75.3924,25.2415 78.5,27C 80.0163,28.897 80.683,31.0637 80.5,33.5C 78.076,33.8076 75.7427,33.4742 73.5,32.5C 72.0813,30.0854 70.4146,29.9187 68.5,32C 72.491,34.3212 76.3244,36.8212 80,39.5C 82.2846,46.5792 79.6179,50.5792 72,51.5C 65.8411,51.5028 62.3411,48.5028 61.5,42.5C 63.8568,42.3367 66.1902,42.5034 68.5,43C 69.6174,44.8921 71.2841,45.7254 73.5,45.5C 73.67,44.1779 73.3366,43.0113 72.5,42C 69.4167,40.8608 66.4167,39.5275 63.5,38C 60.2472,31.6729 61.9139,27.1729 68.5,24.5 Z"/></g>
<g><path style="opacity:0.913" fill="#f2f1ff" d="M 163.5,25.5 C 165.5,25.5 167.5,25.5 169.5,25.5C 169.5,27.1667 169.5,28.8333 169.5,30.5C 170.833,30.5 172.167,30.5 173.5,30.5C 173.5,32.5 173.5,34.5 173.5,36.5C 172.167,36.5 170.833,36.5 169.5,36.5C 169.337,38.8568 169.503,41.1902 170,43.5C 171.011,44.3366 172.178,44.67 173.5,44.5C 173.5,46.5 173.5,48.5 173.5,50.5C 170.07,50.8935 166.904,50.2268 164,48.5C 163.501,44.5138 163.334,40.5138 163.5,36.5C 162.5,36.5 161.5,36.5 160.5,36.5C 160.5,34.5 160.5,32.5 160.5,30.5C 161.5,30.5 162.5,30.5 163.5,30.5C 163.5,28.8333 163.5,27.1667 163.5,25.5 Z"/></g>
<g><path style="opacity:0.867" fill="#f1f0ff" d="M 176.5,25.5 C 178.833,25.5 181.167,25.5 183.5,25.5C 183.5,32.1667 183.5,38.8333 183.5,45.5C 186.167,45.5 188.833,45.5 191.5,45.5C 191.5,47.1667 191.5,48.8333 191.5,50.5C 186.5,50.5 181.5,50.5 176.5,50.5C 176.5,42.1667 176.5,33.8333 176.5,25.5 Z"/></g>
<g><path style="opacity:0.893" fill="#f1f1ff" d="M 84.5,30.5 C 88.6425,31.0169 92.6425,31.0169 96.5,30.5C 99.0466,30.4424 101.38,31.1091 103.5,32.5C 106.962,30.6088 110.628,30.1088 114.5,31C 116.049,32.214 117.215,33.714 118,35.5C 118.499,40.4889 118.666,45.4889 118.5,50.5C 116.167,50.5 113.833,50.5 111.5,50.5C 111.666,46.1539 111.499,41.8206 111,37.5C 108.733,36.0652 106.733,36.3985 105,38.5C 104.501,42.4862 104.334,46.4862 104.5,50.5C 102.5,50.5 100.5,50.5 98.5,50.5C 98.6653,46.8183 98.4986,43.1516 98,39.5C 96.7758,36.527 94.7758,35.8603 92,37.5C 91.501,41.8206 91.3343,46.1539 91.5,50.5C 89.1667,50.5 86.8333,50.5 84.5,50.5C 84.5,43.8333 84.5,37.1667 84.5,30.5 Z"/></g>
<g><path style="opacity:0.89" fill="#f2f0ff" d="M 125.5,30.5 C 131.309,31.1242 136.976,31.1242 142.5,30.5C 142.5,37.1667 142.5,43.8333 142.5,50.5C 139.881,50.7683 137.381,50.435 135,49.5C 130.448,52.4576 126.448,51.7909 123,47.5C 120.423,41.2358 121.256,35.5691 125.5,30.5 Z M 129.5,36.5 C 135.067,35.7532 136.9,38.0866 135,43.5C 133,46.1667 131,46.1667 129,43.5C 128.297,41.0709 128.463,38.7375 129.5,36.5 Z"/></g>
<g><path style="opacity:0.871" fill="#f1f1ff" d="M 146.5,30.5 C 149.394,30.0423 151.894,30.709 154,32.5C 155.444,30.8446 157.278,30.178 159.5,30.5C 159.5,32.8333 159.5,35.1667 159.5,37.5C 157.738,37.3573 156.071,37.6906 154.5,38.5C 153.509,42.4454 153.176,46.4454 153.5,50.5C 151.167,50.5 148.833,50.5 146.5,50.5C 146.5,43.8333 146.5,37.1667 146.5,30.5 Z"/></g>
<g><path style="opacity:0.876" fill="#f2f0ff" d="M 197.5,30.5 C 203.309,31.1242 208.976,31.1242 214.5,30.5C 214.5,37.1667 214.5,43.8333 214.5,50.5C 211.881,50.7683 209.381,50.435 207,49.5C 201.825,52.5965 197.492,51.5965 194,46.5C 191.748,40.4223 192.914,35.089 197.5,30.5 Z M 201.5,36.5 C 206.494,36.329 208.328,38.6624 207,43.5C 203.51,45.8591 201.01,44.8591 199.5,40.5C 200.18,39.1401 200.847,37.8068 201.5,36.5 Z"/></g>
<g><path style="opacity:1" fill="#6ea0d7" d="M 33.5,36.5 C 26.8333,36.5 20.1667,36.5 13.5,36.5C 15.0255,32.6146 16.6922,28.7812 18.5,25C 20.8358,25.7722 23.1692,25.6056 25.5,24.5C 26.5,24.8333 27.5,25.1667 28.5,25.5C 30.367,29.112 32.0337,32.7787 33.5,36.5 Z"/></g>
<g><path style="opacity:1" fill="#5a84c4" d="M 13.5,36.5 C 20.1667,36.5 26.8333,36.5 33.5,36.5C 35.0277,39.7487 36.3611,43.082 37.5,46.5C 32.8509,43.5263 28.1843,40.5263 23.5,37.5C 18.8051,40.5106 14.1384,43.5106 9.5,46.5C 10.3143,42.884 11.6477,39.5507 13.5,36.5 Z"/></g>
<g><path style="opacity:0.704" fill="#1a2b87" d="M 37.5,46.5 C 38.5,46.8333 39.1667,47.5 39.5,48.5C 40.1667,48.5 40.5,48.8333 40.5,49.5C 41.4035,53.1444 42.7368,56.6444 44.5,60C 44.0459,61.6217 43.0459,62.7884 41.5,63.5C 35.4763,59.7965 29.4763,56.1299 23.5,52.5C 17.5237,56.1299 11.5237,59.7965 5.5,63.5C 3.83333,63.1667 2.83333,62.1667 2.5,60.5C 3.62688,56.2498 5.29354,52.2498 7.5,48.5C 7.83333,47.5 8.5,46.8333 9.5,46.5C 14.1384,43.5106 18.8051,40.5106 23.5,37.5C 28.1843,40.5263 32.8509,43.5263 37.5,46.5 Z"/></g>
</svg>
